<?xml version="1.0" encoding="utf-8"?>
<svg version="1.1" id="Layer_1"
xmlns="http://www.w3.org/2000/svg"
xmlns:xlink="http://www.w3.org/1999/xlink"
width="550px" height="400px"
xml:space="preserve">
<g id="PathID_13" transform="matrix(0.33795, 0, 0, 0.33795, 253.55, 164.55)" opacity="1">
<path style="fill:#1D0D0D;fill-opacity:1" d="M113.25 89.7Q115.8 87.15 119.4 87.15Q122.9 87.15 125.45 89.7L147.2 111.65Q149.85 114.15 149.85 117.7Q149.85 121.15 147.2 123.65L138.65 132.35L104.6 98.35L113.25 89.7M51.35 45.4L17.05 11.1L25.8 2.4Q28.45 0 32.05 0Q35.75 0 38.3 2.4L60.15 24.4Q62.5 26.9 62.5 30.5Q62.5 34.05 60.15 36.7L51.35 45.4M12.95 15.25L47.6 49.7Q31.8 65.4 52.2 85.5L64.5 97.8Q84.65 118.25 100.35 102.45L134.65 137.15L133.2 138.3Q117.8 153.65 95.35 148.85Q74.3 144.55 53.95 124.25L25.8 96.05Q5.75 75.8 1.15 54.75Q-3.8 32.2 11.8 16.85L12.95 15.25" />
</g>
<g id="PathID_14" transform="matrix(0.33795, 0, 0, 0.33795, 253.55, 164.55)" opacity="1">
</g>
</svg>
