<?xml version="1.0" encoding="utf-8"?>
<svg version="1.1" id="Layer_1"
xmlns="http://www.w3.org/2000/svg"
xmlns:xlink="http://www.w3.org/1999/xlink"
width="550px" height="400px"
xml:space="preserve">
<g id="PathID_7" transform="matrix(1, 0, 0, 1, 204, 131.9)" opacity="1">
<path style="fill:#1D0D0D;fill-opacity:1" d="M129.15 36.15Q128.25 37 128.25 38.15Q128.25 39.35 129.15 40.3Q130.05 41 131.45 41Q132.75 41 133.65 40.3Q134.6 39.35 134.6 38.15Q134.6 37 133.65 36.15Q132.75 35.35 131.45 35.35Q130.05 35.35 129.15 36.15M122.35 35.35Q121.05 35.35 120.35 36.15Q119.2 37 119.2 38.15Q119.2 39.35 120.35 40.3Q121.05 41 122.35 41Q123.75 41 124.65 40.3Q125.55 39.35 125.55 38.15Q125.55 37 124.65 36.15Q123.75 35.35 122.35 35.35M145.75 39.15Q150 48.9 150 62.85Q150 77 145.9 85.95Q142.8 93.1 139.6 93.1L124.5 93.1L124.5 81.75Q124.5 79.65 123.45 78.8Q122.3 77.85 119.7 77.85L29.7 77.85Q27.65 77.85 26.4 79.1Q25.05 80.1 25.05 81.75L25.05 93.1L10.4 93.1Q7.45 93.1 4.15 85.5Q0 75.95 0 61.75Q0 47.6 4.15 38.65Q7.45 31.35 10.4 31.35L39.05 31.35L39.05 4.95L39.05 50.55Q39.05 52.6 40.7 54.05Q42.2 55.4 44.5 55.4L105.2 55.4Q107.4 55.4 109.05 54.05Q110.55 52.6 110.55 50.55L110.55 31.35L39.05 31.35L139.25 31.35Q142.2 31.35 145.75 39.15M39.05 4.95Q39.05 2.95 40.7 1.4Q42.2 0 44.5 0L105.2 0Q107.4 0 109.05 1.4Q110.55 2.95 110.55 4.95L110.55 31.35M97.4 89.95L52.3 89.95Q51.35 89.95 51.35 91.4Q51.35 92.75 52.3 92.75L97.4 92.75Q98.25 92.75 98.25 91.4Q98.25 89.95 97.4 89.95M19.25 40.3Q21.4 40.3 22.85 39.65Q24.4 39 24.4 38.3Q24.4 37.5 22.85 37.1Q21.4 36.5 19.25 36.5Q16.95 36.5 15.5 37.1Q14.15 37.5 14.15 38.3Q14.15 39 15.5 39.65L19.25 40.3M40.7 114.85Q39.05 113.55 39.05 111.5L39.05 85.05L110.55 85.05L110.55 111.5Q110.55 113.55 109.05 114.85Q107.4 116.25 105.2 116.25L44.5 116.25Q42.2 116.25 40.7 114.85M51.35 107.7Q51.35 109.05 52.3 109.05L97.4 109.05Q98.25 109.05 98.25 107.7Q98.25 106.4 97.4 106.4L52.3 106.4Q51.35 106.4 51.35 107.7M52.3 100.9L97.4 100.9Q98.25 100.9 98.25 99.8Q98.25 98.4 97.4 98.4L52.3 98.4Q51.35 98.4 51.35 99.8Q51.35 100.9 52.3 100.9" />
</g>
<g id="PathID_8" transform="matrix(1, 0, 0, 1, 204, 131.9)" opacity="1">
</g>
</svg>
