<?xml version="1.0" encoding="utf-8"?>
<svg version="1.1" id="Layer_1"
xmlns="http://www.w3.org/2000/svg"
xmlns:xlink="http://www.w3.org/1999/xlink"
width="550px" height="400px"
xml:space="preserve">
<g id="PathID_9" transform="matrix(1, 0, 0, 1, 204, 115.15)" opacity="1">
<path style="fill:#1D0D0D;fill-opacity:1" d="M136.8 36.6L140.3 43.4Q142.15 46.9 138.4 49.65Q134.3 51.65 132.2 47.15L128.7 41.3Q125.6 35.35 129.7 33.45Q133.7 31.25 136.8 36.6M127.45 31.6L121.25 31L116.25 26Q113.15 22.25 116.25 19.4Q119.6 16.3 122.75 19.4L128.1 25Q131.2 29.1 127.45 31.6M102.45 23.5Q113.75 44.05 113.75 75.05Q113.75 105.65 102.45 126.2L99.7 130.95L118.1 118.1Q136.15 100.05 136.15 75.05Q135.9 67.8 142.75 67.8Q150 67.8 150 75.05Q150 105.65 128.1 127.8Q105.55 149.75 74.95 149.75Q43.7 149.75 21.9 127.8Q0 105.65 0 75.05Q0 43.8 21.9 21.9Q43.7 0 74.95 0Q79.65 0 81.3 3.1Q93.35 6.35 102.45 23.5M95.6 30.35Q88.75 15.3 79.65 12.55L79.65 45.9L101.2 45.9L95.6 30.35M102.2 50.25L79.65 50.25L79.65 72.55L104.3 72.55L102.2 50.25M137.4 63.1L135.9 56.6Q134.7 51.9 139.3 50.65Q143.75 49.65 144.65 53.75L146.5 61Q147.5 64.1 143 65.6Q138.65 66.95 137.4 63.1M48.65 45.9L70.3 45.9L70.3 14.05L66.2 14.4Q59.6 18.8 54.4 30.35L48.65 45.9M50.05 19.05Q39.95 23.5 31.85 31.85Q25 38.2 20.9 45.9L39.3 45.9Q42.2 33.45 47.4 23.5L50.05 19.05M13.7 72.55L36.2 72.55L38.45 50.25L18.8 50.25Q14.05 60.6 13.7 72.55M13.7 77.15Q14.05 89.1 18.8 99.45L38.45 99.45L36.2 77.15L13.7 77.15M70.3 72.55L70.3 50.25L47.8 50.25L45.3 72.55L70.3 72.55M45.3 77.15L47.4 99.45L70.3 99.45L70.3 77.15L45.3 77.15M47.4 126.2Q42.2 116.25 39.3 103.8L20.9 103.8L31.85 118.1Q39.95 126.2 50.05 130.95L47.4 126.2M70.3 103.8L48.65 103.8L54.4 119.35Q59.6 130.7 66.2 135.3L70.3 135.65L70.3 103.8M79.65 135.65L83.75 135.3Q90.25 130.7 95.6 119.35L101.2 103.8L79.65 103.8L79.65 135.65M79.65 77.15L79.65 99.45L102.2 99.45L104.3 77.15L79.65 77.15" />
</g>
<g id="PathID_10" transform="matrix(1, 0, 0, 1, 204, 115.15)" opacity="1">
</g>
</svg>
